<svg width="176" height="172" viewBox="0 0 176 172" fill="none" src="Downloads">
<path fill-rule="evenodd" clip-rule="evenodd" d="M88 0C39.38 0 0 39.38 0 88C0 126.94 25.19 159.83 60.17 171.49C64.57 172.26 66.22 169.62 66.22 167.31C66.22 165.22 66.11 158.29 66.11 150.92C44 154.99 38.28 145.53 36.52 140.58C35.53 138.05 31.24 130.24 27.5 128.15C24.42 126.5 20.02 122.43 27.39 122.32C34.32 122.21 39.27 128.7 40.92 131.34C48.84 144.65 61.49 140.91 66.55 138.6C67.32 132.88 69.63 129.03 72.16 126.83C52.58 124.63 32.12 117.04 32.12 83.38C32.12 73.81 35.53 65.89 41.14 59.73C40.26 57.53 37.18 48.51 42.02 36.41C42.02 36.41 49.39 34.1 66.22 45.43C73.26 43.45 80.74 42.46 88.22 42.46C95.7 42.46 103.18 43.45 110.22 45.43C127.05 33.99 134.42 36.41 134.42 36.41C139.26 48.51 136.18 57.53 135.3 59.73C140.91 65.89 144.32 73.7 144.32 83.38C144.32 117.15 123.75 124.63 104.17 126.83C107.36 129.58 110.11 134.86 110.11 143.11C110.11 154.88 110 164.34 110 167.31C110 169.62 111.65 172.37 116.05 171.49C133.519 165.592 148.699 154.364 159.454 139.387C170.208 124.41 175.995 106.438 176 88C176 39.38 136.62 0 88 0Z" fill="#8660BB"/>
</svg>
